<?xml version="1.0" encoding="utf-8"?>
<!-- Generator: Adobe Illustrator 19.2.1, SVG Export Plug-In . SVG Version: 6.00 Build 0)  -->
<svg version="1.1" xmlns="http://www.w3.org/2000/svg" xmlns:xlink="http://www.w3.org/1999/xlink" x="0px" y="0px"
	 viewBox="0 0 1280 720" style="enable-background:new 0 0 1280 720;" xml:space="preserve">
<style type="text/css">
	.st0{fill:url(#SVGID_1_);}
	.st1{fill:#F6F6F6;}
	.st2{fill:#696880;}
	.st3{fill:url(#SVGID_2_);}
	.st4{fill:url(#SVGID_3_);}
	.st5{fill:url(#SVGID_4_);}
	.st6{fill:url(#SVGID_5_);}
	.st7{fill:#696C6D;}
	.st8{fill:#3C3D42;}
</style>
<g id="Layer_6">
	<linearGradient id="SVGID_1_" gradientUnits="userSpaceOnUse" x1="640" y1="-2.873367e-008" x2="640" y2="720">
		<stop  offset="0" style="stop-color:#B7C7E8"/>
		<stop  offset="1" style="stop-color:#E6EBF6"/>
	</linearGradient>
	<rect class="st0" width="1280" height="720"/>
</g>
<g id="Layer_12">
	<circle class="st1" cx="224.8" cy="136.8" r="6.2"/>
	<circle class="st1" cx="303.7" cy="262.9" r="3.1"/>
	<circle class="st1" cx="436.7" cy="143.9" r="3.1"/>
	<circle class="st1" cx="436.7" cy="143.9" r="3.1"/>
	<circle class="st1" cx="595.1" cy="243.1" r="3.1"/>
	<circle class="st1" cx="515.1" cy="387.1" r="3.1"/>
	<circle class="st1" cx="35.1" cy="218.9" r="3.1"/>
	<circle class="st1" cx="514.7" cy="48.9" r="3.1"/>
	<circle class="st1" cx="364.9" cy="380.9" r="3.1"/>
	<circle class="st1" cx="144.7" cy="35.1" r="3.1"/>
	<circle class="st1" cx="1258.7" cy="29.9" r="3.1"/>
	<circle class="st1" cx="608.7" cy="368.9" r="3.1"/>
	<circle class="st1" cx="886.2" cy="105.8" r="6.2"/>
	<circle class="st1" cx="909.9" cy="266.8" r="3.1"/>
	<circle class="st1" cx="1062.9" cy="147.8" r="3.1"/>
	<circle class="st1" cx="1062.9" cy="147.8" r="3.1"/>
	<circle class="st1" cx="1177.9" cy="186.8" r="3.1"/>
	<circle class="st1" cx="1110.9" cy="360.8" r="3.1"/>
	<circle class="st1" cx="748.9" cy="195.1" r="3.1"/>
	<circle class="st1" cx="1140.9" cy="52.8" r="3.1"/>
	<circle class="st1" cx="1000.9" cy="412.8" r="3.1"/>
	<circle class="st1" cx="750.9" cy="72.8" r="3.1"/>
	<circle class="st1" cx="1234.9" cy="372.8" r="3.1"/>
	<circle class="st1" cx="613.8" cy="88.8" r="6.2"/>
	<circle class="st1" cx="442.8" cy="259.8" r="6.2"/>
	<circle class="st1" cx="95.8" cy="344.8" r="6.2"/>
	<circle class="st1" cx="1240" cy="92.7" r="6.2"/>
	<circle class="st1" cx="1069" cy="263.7" r="6.2"/>
	<circle class="st1" cx="761.8" cy="326.2" r="6.2"/>
</g>
<g id="Layer_5">
	<path class="st2" d="M0,416h16l16,32l47.1,33.6c0,0,19.5,0,25.5,0s-3-6,21-4.5s34.5,3,39,4.5c4.5,1.5,15-4.5,22.5-4.5
		c7.5,0,7.3,0,14.9-4.5c7.6-4.5,19.6-3,37.6-4.5c18-1.5,25.5,3,31.5,0s21-22.5,25.5-25.5c4.5-3,22.5-13.5,22.5-13.5s-6-3,13.5,0
		c19.5,3,21-13.2,25.5-1.3c4.5,11.8-4.5,15.3,0,24.8c4.5,9.5,0,3.5,4.5,9.5c4.5,6,1.5,3,16.5,6c15,3,15.6-2.1,27,3s9,3.5,15,10.7
		c6,7.3,3,8.8,19.5,14.8s27,7.5,36,7.5c9,0,19.5-1.5,36,0c16.5,1.5,19.5,3,36,0c16.5-3,15-6,36-6c21,0,19.5,8,45,7.7
		c25.5-0.2,106.5-15.2,120-21.2s12-19,18-20c6-1,13.1-11.5,21-13c7.9-1.5,16.5,4.5,30,4.5s10.5,9.5,22.5,8.5c12-1,13.5-2,22.5,0
		c9,2,13.5,8,22.5,11c9,3,9,4.5,15,6c6,1.5,18-4.5,18-4.5l12-12.5c0,0-6-19,7.5-20.5c13.5-1.5-4.5-1.5,13.5-1.5c18,0,18-1.5,28.5,0
		c10.5,1.5,11-1.7,16.5,12c5.5,13.7-1.5,22.5,7.5,28.5c9,6,21,1.5,37.5,9c16.5,7.5-9-7.5,16.5,7.5c25.5,15,27,16.5,46.5,16.5
		s24,4.5,37.5,0c13.5-4.5,19.5-19.5,19.5-25.5s-13.5-8.2,0-19.9c13.5-11.6,15-13.1,28.5-17.6c13.5-4.5,18-12,27-13.5
		c9-1.5,16.5-3.9,18-16.2c1.5-12.3-2.1-15.4,10.5-25.8c29.2-24.2,33.9,18.4,33.9,18.4v304H0V416z"/>
	<linearGradient id="SVGID_2_" gradientUnits="userSpaceOnUse" x1="137.6156" y1="-43.3894" x2="137.6156" y2="-43.3894">
		<stop  offset="0" style="stop-color:#8A2826"/>
		<stop  offset="1" style="stop-color:#AA4A73"/>
	</linearGradient>
	<path class="st3" d="M137.6-43.4"/>
</g>
<g id="Layer_4">
	<linearGradient id="SVGID_3_" gradientUnits="userSpaceOnUse" x1="640" y1="387.8391" x2="640" y2="720">
		<stop  offset="0" style="stop-color:#8993B3"/>
		<stop  offset="1" style="stop-color:#D0EBFC"/>
	</linearGradient>
	<path class="st4" d="M0,528c5.6-2.1,11.2-0.4,14.6-3.8c9-8.9,16.5-11.9,19.5-17.9s13.5-19.5,13.5-19.5s-3-15,0-21c3-6,0-45,0-45
		s-21-4.5,7.5-12s37.5-13.5,52.5-13.5s22.5,7.5,46.5,0s51-7.5,51-7.5s16.5,15,18,27s-7.5,21,0,33c7.5,12,7.5-3,16.5,18
		c9,21,6,25.5,21,27c15,1.5,18,3,28.5,3s21-7.5,30,6c9,13.5,10.5,23.7,24,22.4s21-4.6,30,0s18,16.6,22.5,6.1c4.5-10.5,3-36,12-43.5
		c9-7.5,18-34.5,37.5-29.2c19.5,5.2,10.5-0.8,28.5,6.7c18,7.5,21,10.5,31.5,9c10.5-1.5,16.5-19.5,27-15.7c10.5,3.7,12-2.3,28.5,6.7
		c16.5,9,13.5,16.5,34.5,12c21-4.5,27-9,36-10.5c9-1.5,19.5-7.5,25.5-8.2c6-0.8,6,0.7,6-11.3c0-12-13.5-51,16.5-51
		c30,0,37.5-3,55.5,0c18,3,24-12,31.5,6c7.5,18,0,10.5,9,24c9,13.5,0,22.5,13.5,24c13.5,1.5,15-15,31.5-16.5
		c16.5-1.5,30-16.5,39-19.5c9-3,21,31.5,13.5,51c-7.5,19.5-31.5,12-24,25.5s4.5,10.5,22.5,16.5c18,6,22.5-4.5,33,6
		c10.5,10.5-13.5,67.2,19.5,11.9s34.5-59.6,49.5-61.2c15-1.6,4.5-5.9,21,0c16.5,5.9,18,7.4,30,7.4c12,0,18,0,27,0c9,0,16.5,0,21,0
		s13.5-16.5,15,3c1.5,19.5-6,31.5,6,30s15-3,31.5-4.5c16.5-1.5,13.4-84.3,43.4-82.8s15.5,16,32,16s32,16,32,16l32,80l16,16v176H0"/>
	<linearGradient id="SVGID_4_" gradientUnits="userSpaceOnUse" x1="202" y1="412" x2="202" y2="412">
		<stop  offset="0" style="stop-color:#80596F"/>
		<stop  offset="1" style="stop-color:#9B7B8D"/>
	</linearGradient>
	<path class="st5" d="M202,412"/>
	<linearGradient id="SVGID_5_" gradientUnits="userSpaceOnUse" x1="808.1872" y1="415.8946" x2="808.1872" y2="415.8946">
		<stop  offset="0" style="stop-color:#80596F"/>
		<stop  offset="1" style="stop-color:#9B7B8D"/>
	</linearGradient>
	<path class="st6" d="M808.2,415.9"/>
</g>
<g id="Layer_3">
	<path class="st7" d="M0,576l30.3,4.6h12c0,0,4.5,4.5,9,0c4.5-4.5,6-3,12,0c6,3,9-6.5,15,2c6,8.5,13.6,8.5,15.8,11.5
		c2.2,3,11.2,10.5,11.2,10.5s5.9-2.3,12,0c6.1,2.3-7.3,3.3,6.1,2.3s17.1,0.2,23.9,0.1s13.5,7.5,22.5,3.3c9-4.2,19.5,5.7,31.5,0
		c12-5.7,6,5.7,19.5,0c13.5-5.7,7.5,1.8,24-7.2c16.5-9,22.5-15,31.5-18c9-3,6.8-10.4,19.5-9.2c12.7,1.3-6.5-3.6,35.7-7.7
		s42.3,4.1,54.3,0s30,1.8,36-1.2c6-2.9,18-7.4,28.5-8.9c10.5-1.5,16.5,6,27,0s15-1.9,33-0.2c18,1.7,21,6.2,31.5,6.2
		c10.5,0,10.5-4.5,24,0c13.5,4.5,15,6,25.5,9c10.5,3,9.5,7.4,18.2,10.4c8.8,3.1,2.8,0.1,19.3,9.1c16.5,9,21,10.5,43.5,9
		c22.5-1.5,15-1.5,39-1.5c24,0,36,1.5,49.5,1.5s25.5,1.5,45-6s36-18,48-19.5s21-1.5,34.5-1.5c13.5,0-7.5,19.5,25.5-6
		s28.5-34.5,40.5-36c12-1.5,15,0,28.5,0s7.5-13.3,21-0.7c13.5,12.7-3,3.7,25.5,18.7c28.5,15,31.5,2.9,39,18.7
		c7.5,15.8,8.8,16.7,16.4,19.2s18.1-6.4,36.1-6.4s10.5-8.8,24-12.8c13.5-4,27,6.8,36,6.8c9,0,12-3,27,1.5c15,4.5,27,4.5,37.5,4.5
		s25.5,1.5,25.5,1.5l9.3-7.6v144H0V576z"/>
</g>
<g id="Layer_2">
	<path class="st8" d="M0,608c7.5-1.5,34.1,2.6,43.1,4.1s16.5,4.5,21,6s6,1.5,16.5,6s21-4.5,25.5,0s31.5,1.3,31.5,1.3
		s-1.5-2.5,10.5,1.1c5.2,1.5,17.8-2.9,30.6-8.4l3.1-1.4c15.8-7,30.8-15.2,30.8-15.2l13.5-12l9-13.5c0,0-12-21,13.5-7.5
		s37.5,28.2,48,26.8c10.5-1.3,13.5,4.3,24,0c10.5-4.3,19.5-17.8,30-14.8c10.5,3,10.5,7.2,18,14.8c7.5,7.7,10.5,10.7,15,10.7
		s12,4.5,21,4.5h22.5c4.5,0,21,3,39,3s46.5,1.5,54,1.5c0.4,0,0.7,0,1.1,0l0.1,0c0.4,0,0.9,0,1.4-0.1c0,0,0,0,0,0l3.5-0.3
		c8.7-1,21-2.7,26.9,2c7.5,6,30,14.4,37.5,10.2c7.5-4.2,33-43.2,33-43.2s-6-10.5,0-10.5s-3-6,27-9c30-3,34.5-4.5,69-7.5
		c34.5-3,57-25.5,66-13.5s9,15,12,21s0,19.7,0,19.7l-6,7.3l-12,18l-4.5,12c0,0,3,7.7,13.5,6.9c10.5-0.9,30,0.1,30,0.1s7.5,0.9,12,0
		c4.5-0.9,6,4.7,10.5,0.4c4.5-4.3-6-4.3,4.5-4.3s16.5-4.5,21-10.5s40.5,0,40.5,0s3,1.5,7.5,3s12,3,18,3c1.2,0,3.1-0.6,5.3-1.7
		l3.1-1.6c8.2-4.4,18.5-11.8,18.5-11.8l15-9l9-10.8c0,0,4.5-0.3,12,0c7.5,0.3,10.5-7.8,24,0c13.5,7.8,21,6.3,34.5,10.8s15,6,22.5,9
		s7.5,3,16.5,6s15,4.5,21,4.5s18-9,25.5-13.5s19.5-16.8,19.5-16.8l9-11.7c0,0-3-4.5,15-4.5s34.5-3,43.5-4.5S1233,595,1248,592
		s32,16,32,16v112H0"/>
</g>
</svg>
